# 3ds Max Wavefront OBJ Exporter v0.97b - (c)2007 guruware
# File Created: 15.10.2019 14:23:26

mtllib Stool.mtl

#
# object Top_stool
#

v  -9.5601 44.0527 9.6759
v  -11.2644 44.0415 5.7396
v  -6.0856 44.0209 6.2014
v  -5.6238 44.0415 11.3802
v  -12.1055 44.0360 -0.0000
v  -6.5474 44.0139 -0.0000
v  0.1158 44.0139 6.6632
v  0.1158 44.0360 12.2214
v  0.1158 44.0066 -0.0000
v  -11.2644 44.0415 -5.7396
v  -9.5601 44.0527 -9.6759
v  -5.6238 44.0415 -11.3802
v  -6.0856 44.0209 -6.2014
v  0.1158 44.0360 -12.2214
v  0.1158 44.0139 -6.6632
v  9.7917 44.0527 -9.6759
v  11.4960 44.0415 -5.7396
v  6.3172 44.0209 -6.2014
v  5.8554 44.0415 -11.3802
v  12.3372 44.0360 -0.0000
v  6.7790 44.0139 -0.0000
v  11.4960 44.0415 5.7396
v  9.7917 44.0527 9.6759
v  5.8554 44.0415 11.3802
v  6.3172 44.0209 6.2014
v  -9.5601 48.9300 9.6759
v  -5.6238 48.9412 11.3802
v  -6.0856 48.9619 6.2014
v  -11.2644 48.9412 5.7396
v  0.1158 48.9468 12.2214
v  0.1158 48.9688 6.6632
v  -6.5474 48.9688 -0.0000
v  -12.1055 48.9468 -0.0000
v  0.1158 48.9762 0.0000
v  5.8554 48.9412 11.3802
v  9.7917 48.9300 9.6759
v  11.4960 48.9412 5.7396
v  6.3172 48.9619 6.2014
v  12.3372 48.9468 -0.0000
v  6.7790 48.9688 -0.0000
v  9.7917 48.9300 -9.6759
v  5.8554 48.9412 -11.3802
v  6.3172 48.9619 -6.2014
v  11.4960 48.9412 -5.7396
v  0.1158 48.9468 -12.2214
v  0.1158 48.9688 -6.6632
v  -5.6238 48.9412 -11.3802
v  -9.5601 48.9300 -9.6759
v  -11.2644 48.9412 -5.7396
v  -6.0856 48.9619 -6.2014
v  -12.9467 44.5539 13.0625
v  -7.0092 44.5539 16.6250
v  -7.0092 46.4914 16.6250
v  -12.9467 46.4914 13.0625
v  0.1158 44.5539 17.8125
v  0.1158 46.4914 17.8125
v  13.1783 44.5539 13.0625
v  16.7408 44.5539 7.1250
v  16.7408 46.4914 7.1250
v  13.1783 46.4914 13.0625
v  17.9283 44.5539 -0.0000
v  17.9283 46.4914 -0.0000
v  13.1783 44.5539 -13.0625
v  7.2408 44.5539 -16.6250
v  7.2408 46.4914 -16.6250
v  13.1783 46.4914 -13.0625
v  0.1158 44.5539 -17.8125
v  0.1158 46.4914 -17.8125
v  -12.9467 44.5539 -13.0625
v  -16.5092 44.5539 -7.1250
v  -16.5092 46.4914 -7.1250
v  -12.9467 46.4914 -13.0625
v  -17.6967 44.5539 -0.0000
v  -17.6967 46.4914 -0.0000
v  13.1783 48.4289 13.0625
v  13.1783 48.6789 13.0625
v  7.2408 48.6789 16.6250
v  7.2408 48.4289 16.6250
v  12.7577 48.8289 12.6419
v  7.0099 48.8297 16.0972
v  0.1158 48.6789 17.8125
v  0.1158 48.4289 17.8125
v  0.1158 48.8305 17.2517
v  11.4960 48.9041 11.3802
v  6.3172 48.9072 14.5139
v  0.1158 48.9102 15.5694
v  -11.2644 48.9041 11.3802
v  -6.0856 48.9072 14.5139
v  -12.5261 48.8289 12.6419
v  -6.7783 48.8297 16.0972
v  -12.9467 48.6789 13.0625
v  -12.9467 48.4289 13.0625
v  -7.0092 48.4289 16.6250
v  -7.0092 48.6789 16.6250
v  7.2408 46.4914 16.6250
v  -12.9467 44.3039 13.0625
v  -7.0092 44.3039 16.6250
v  -12.5261 44.1538 12.6419
v  -6.7783 44.1531 16.0972
v  0.1158 44.3039 17.8125
v  0.1158 44.1523 17.2517
v  -11.2644 44.0786 11.3802
v  -6.0856 44.0756 14.5139
v  0.1158 44.0725 15.5694
v  11.4960 44.0786 11.3802
v  6.3172 44.0756 14.5139
v  12.7577 44.1538 12.6419
v  7.0099 44.1531 16.0972
v  13.1783 44.3039 13.0625
v  7.2408 44.5539 16.6250
v  7.2408 44.3039 16.6250
v  13.1783 48.4289 -13.0625
v  13.1783 48.6789 -13.0625
v  16.7408 48.6789 -7.1250
v  16.7408 48.4289 -7.1250
v  12.7577 48.8289 -12.6419
v  16.2130 48.8297 -6.8941
v  17.9283 48.6789 -0.0000
v  17.9283 48.4289 -0.0000
v  17.3675 48.8305 -0.0000
v  11.4960 48.9041 -11.3802
v  14.6297 48.9072 -6.2014
v  15.6853 48.9102 -0.0000
v  14.6297 48.9072 6.2014
v  16.2130 48.8297 6.8941
v  16.7408 48.4289 7.1250
v  16.7408 48.6789 7.1250
v  16.7408 46.4914 -7.1250
v  16.7408 44.3039 7.1250
v  16.2130 44.1531 6.8941
v  17.9283 44.3039 -0.0000
v  17.3675 44.1523 -0.0000
v  14.6297 44.0756 6.2014
v  15.6853 44.0725 -0.0000
v  11.4960 44.0786 -11.3802
v  14.6297 44.0756 -6.2014
v  12.7577 44.1538 -12.6419
v  16.2130 44.1531 -6.8941
v  13.1783 44.3039 -13.0625
v  16.7408 44.5539 -7.1250
v  16.7408 44.3039 -7.1250
v  -12.9467 48.4289 -13.0625
v  -12.9467 48.6789 -13.0625
v  -7.0092 48.6789 -16.6250
v  -7.0092 48.4289 -16.6250
v  -12.5261 48.8289 -12.6419
v  -6.7783 48.8297 -16.0972
v  0.1158 48.6789 -17.8125
v  0.1158 48.4289 -17.8125
v  0.1158 48.8305 -17.2517
v  -11.2644 48.9041 -11.3802
v  -6.0856 48.9072 -14.5139
v  0.1158 48.9102 -15.5694
v  6.3172 48.9072 -14.5139
v  7.0099 48.8297 -16.0972
v  7.2408 48.4289 -16.6250
v  7.2408 48.6789 -16.6250
v  -7.0092 46.4914 -16.6250
v  7.2408 44.3039 -16.6250
v  7.0099 44.1531 -16.0972
v  0.1158 44.3039 -17.8125
v  0.1158 44.1523 -17.2517
v  6.3172 44.0756 -14.5139
v  0.1158 44.0725 -15.5694
v  -11.2644 44.0786 -11.3802
v  -6.0856 44.0756 -14.5139
v  -12.5261 44.1538 -12.6419
v  -6.7783 44.1531 -16.0972
v  -12.9467 44.3039 -13.0625
v  -7.0092 44.5539 -16.6250
v  -7.0092 44.3039 -16.6250
v  -16.5092 48.6789 7.1250
v  -16.5092 48.4289 7.1250
v  -15.9814 48.8297 6.8941
v  -17.6967 48.6789 -0.0000
v  -17.6967 48.4289 -0.0000
v  -17.1359 48.8305 -0.0000
v  -14.3981 48.9072 6.2014
v  -15.4536 48.9102 -0.0000
v  -14.3981 48.9072 -6.2014
v  -15.9814 48.8297 -6.8941
v  -16.5092 48.4289 -7.1250
v  -16.5092 48.6789 -7.1250
v  -16.5092 46.4914 7.1250
v  -16.5092 44.3039 -7.1250
v  -15.9814 44.1531 -6.8941
v  -17.6967 44.3039 -0.0000
v  -17.1359 44.1523 -0.0000
v  -14.3981 44.0756 -6.2014
v  -15.4536 44.0725 -0.0000
v  -14.3981 44.0756 6.2014
v  -15.9814 44.1531 6.8941
v  -16.5092 44.5539 7.1250
v  -16.5092 44.3039 7.1250
# 194 vertices

vn -0.0066 -1.0000 0.0066
vn -0.0074 -1.0000 0.0040
vn -0.0028 -1.0000 0.0028
vn -0.0040 -1.0000 0.0074
vn -0.0078 -1.0000 -0.0000
vn -0.0026 -1.0000 -0.0000
vn -0.0000 -1.0000 0.0026
vn 0.0000 -1.0000 0.0078
vn 0.0000 -1.0000 -0.0000
vn -0.0074 -1.0000 -0.0040
vn -0.0066 -1.0000 -0.0066
vn -0.0040 -1.0000 -0.0074
vn -0.0028 -1.0000 -0.0028
vn 0.0000 -1.0000 -0.0078
vn 0.0000 -1.0000 -0.0026
vn 0.0066 -1.0000 -0.0066
vn 0.0074 -1.0000 -0.0040
vn 0.0028 -1.0000 -0.0028
vn 0.0040 -1.0000 -0.0074
vn 0.0078 -1.0000 -0.0000
vn 0.0026 -1.0000 0.0000
vn 0.0074 -1.0000 0.0040
vn 0.0066 -1.0000 0.0066
vn 0.0040 -1.0000 0.0074
vn 0.0028 -1.0000 0.0028
vn -0.0066 1.0000 0.0066
vn -0.0040 1.0000 0.0074
vn -0.0028 1.0000 0.0028
vn -0.0074 1.0000 0.0040
vn 0.0000 1.0000 0.0078
vn 0.0000 1.0000 0.0026
vn -0.0026 1.0000 -0.0000
vn -0.0078 1.0000 -0.0000
vn 0.0000 1.0000 -0.0000
vn 0.0040 1.0000 0.0074
vn 0.0066 1.0000 0.0066
vn 0.0074 1.0000 0.0040
vn 0.0028 1.0000 0.0028
vn 0.0078 1.0000 -0.0000
vn 0.0026 1.0000 -0.0000
vn 0.0066 1.0000 -0.0066
vn 0.0040 1.0000 -0.0074
vn 0.0028 1.0000 -0.0028
vn 0.0074 1.0000 -0.0040
vn 0.0000 1.0000 -0.0078
vn 0.0000 1.0000 -0.0026
vn -0.0040 1.0000 -0.0074
vn -0.0066 1.0000 -0.0066
vn -0.0074 1.0000 -0.0040
vn -0.0028 1.0000 -0.0028
vn -0.7071 0.0000 0.7071
vn -0.3455 0.0000 0.9384
vn 0.0000 0.0000 1.0000
vn 0.7071 0.0000 0.7071
vn 0.9384 0.0000 0.3455
vn 1.0000 0.0000 -0.0000
vn 0.7071 0.0000 -0.7071
vn 0.3455 0.0000 -0.9384
vn 0.0000 0.0000 -1.0000
vn -0.7071 0.0000 -0.7071
vn -0.9384 0.0000 -0.3455
vn -1.0000 0.0000 -0.0000
vn 0.5799 0.5722 0.5799
vn 0.2828 0.5780 0.7655
vn 0.3455 0.0000 0.9384
vn 0.1129 0.9872 0.1129
vn 0.0554 0.9867 0.1527
vn 0.0000 0.5789 0.8154
vn 0.0000 0.9861 0.1662
vn 0.0204 0.9996 0.0204
vn 0.0106 0.9996 0.0280
vn 0.0000 0.9995 0.0311
vn -0.0204 0.9996 0.0204
vn -0.0106 0.9996 0.0280
vn -0.1129 0.9872 0.1129
vn -0.0554 0.9867 0.1527
vn -0.5799 0.5722 0.5799
vn -0.2828 0.5780 0.7655
vn -0.5799 -0.5722 0.5799
vn -0.2828 -0.5780 0.7655
vn -0.1129 -0.9872 0.1129
vn -0.0554 -0.9867 0.1527
vn 0.0000 -0.5789 0.8154
vn 0.0000 -0.9861 0.1662
vn -0.0204 -0.9996 0.0204
vn -0.0106 -0.9996 0.0280
vn 0.0000 -0.9995 0.0311
vn 0.0204 -0.9996 0.0204
vn 0.0106 -0.9996 0.0280
vn 0.1129 -0.9872 0.1129
vn 0.0554 -0.9867 0.1527
vn 0.5799 -0.5722 0.5799
vn 0.2828 -0.5780 0.7655
vn 0.5799 0.5722 -0.5799
vn 0.7655 0.5780 -0.2828
vn 0.9384 0.0000 -0.3455
vn 0.1129 0.9872 -0.1129
vn 0.1527 0.9867 -0.0554
vn 0.8154 0.5789 -0.0000
vn 0.1662 0.9861 -0.0000
vn 0.0204 0.9996 -0.0204
vn 0.0280 0.9996 -0.0106
vn 0.0311 0.9995 -0.0000
vn 0.0280 0.9996 0.0106
vn 0.1527 0.9867 0.0554
vn 0.7655 0.5780 0.2828
vn 0.7655 -0.5780 0.2828
vn 0.1527 -0.9867 0.0554
vn 0.8154 -0.5789 -0.0000
vn 0.1662 -0.9861 -0.0000
vn 0.0280 -0.9996 0.0106
vn 0.0311 -0.9995 -0.0000
vn 0.0204 -0.9996 -0.0204
vn 0.0280 -0.9996 -0.0106
vn 0.1129 -0.9872 -0.1129
vn 0.1527 -0.9867 -0.0554
vn 0.5799 -0.5722 -0.5799
vn 0.7655 -0.5780 -0.2828
vn -0.5799 0.5722 -0.5799
vn -0.2828 0.5780 -0.7655
vn -0.3455 0.0000 -0.9384
vn -0.1129 0.9872 -0.1129
vn -0.0554 0.9867 -0.1527
vn 0.0000 0.5789 -0.8154
vn 0.0000 0.9861 -0.1662
vn -0.0204 0.9996 -0.0204
vn -0.0106 0.9996 -0.0280
vn 0.0000 0.9995 -0.0311
vn 0.0106 0.9996 -0.0280
vn 0.0554 0.9867 -0.1527
vn 0.2828 0.5780 -0.7655
vn 0.2828 -0.5780 -0.7655
vn 0.0554 -0.9867 -0.1527
vn -0.0000 -0.5789 -0.8154
vn 0.0000 -0.9861 -0.1662
vn 0.0106 -0.9996 -0.0280
vn 0.0000 -0.9995 -0.0311
vn -0.0204 -0.9996 -0.0204
vn -0.0106 -0.9996 -0.0280
vn -0.1129 -0.9872 -0.1129
vn -0.0554 -0.9867 -0.1527
vn -0.5799 -0.5722 -0.5799
vn -0.2828 -0.5780 -0.7655
vn -0.7655 0.5780 0.2828
vn -0.9384 0.0000 0.3455
vn -0.1527 0.9867 0.0554
vn -0.8154 0.5789 -0.0000
vn -0.1662 0.9861 -0.0000
vn -0.0280 0.9996 0.0106
vn -0.0311 0.9995 -0.0000
vn -0.0280 0.9996 -0.0106
vn -0.1527 0.9867 -0.0554
vn -0.7655 0.5780 -0.2828
vn -0.7655 -0.5780 -0.2828
vn -0.1527 -0.9867 -0.0554
vn -0.8154 -0.5789 0.0000
vn -0.1662 -0.9861 -0.0000
vn -0.0280 -0.9996 -0.0106
vn -0.0311 -0.9995 -0.0000
vn -0.0280 -0.9996 0.0106
vn -0.1527 -0.9867 0.0554
vn -0.7655 -0.5780 0.2828
# 162 vertex normals

vt 0.5709 0.8198 -0.2812
vt 0.5480 0.7667 -0.2812
vt 0.6177 0.7730 -0.2812
vt 0.6239 0.8428 -0.2812
vt 0.5366 0.6894 -0.2812
vt 0.6115 0.6894 -0.2812
vt 0.7012 0.7792 -0.2812
vt 0.7012 0.8542 -0.2812
vt 0.7012 0.6894 -0.2812
vt 0.5480 0.6120 -0.2812
vt 0.5709 0.5589 -0.2812
vt 0.6239 0.5359 -0.2812
vt 0.6177 0.6058 -0.2812
vt 0.7012 0.5246 -0.2812
vt 0.7012 0.5995 -0.2812
vt 0.8315 0.5589 -0.2812
vt 0.8545 0.6120 -0.2812
vt 0.7847 0.6058 -0.2812
vt 0.7785 0.5359 -0.2812
vt 0.8658 0.6894 -0.2812
vt 0.7910 0.6894 -0.2812
vt 0.8544 0.7667 -0.2812
vt 0.8315 0.8198 -0.2812
vt 0.7785 0.8428 -0.2812
vt 0.7847 0.7730 -0.2812
vt 0.1685 0.1680 -2.2188
vt 0.2215 0.1450 -2.2188
vt 0.2153 0.2148 -2.2188
vt 0.1456 0.2211 -2.2188
vt 0.2988 0.1337 -2.2188
vt 0.2988 0.2086 -2.2188
vt 0.2091 0.2985 -2.2188
vt 0.1342 0.2985 -2.2188
vt 0.2988 0.2985 -2.2188
vt 0.3761 0.1450 -2.2188
vt 0.4291 0.1680 -2.2188
vt 0.4520 0.2211 -2.2188
vt 0.3823 0.2148 -2.2188
vt 0.4634 0.2985 -2.2188
vt 0.3885 0.2985 -2.2188
vt 0.4291 0.4289 -2.2188
vt 0.3761 0.4519 -2.2188
vt 0.3823 0.3821 -2.2188
vt 0.4520 0.3758 -2.2188
vt 0.2988 0.4633 -2.2188
vt 0.2988 0.3883 -2.2188
vt 0.2215 0.4519 -2.2188
vt 0.1685 0.4289 -2.2188
vt 0.1456 0.3758 -2.2188
vt 0.2153 0.3821 -2.2188
vt 0.0918 0.0410 0.0000
vt 0.0350 0.0410 0.0000
vt 0.0350 0.0251 0.0000
vt 0.0918 0.0251 0.0000
vt 0.9650 0.0410 0.0000
vt 0.9055 0.0410 0.0000
vt 0.9055 0.0251 0.0000
vt 0.9650 0.0251 0.0000
vt 0.7891 0.0410 0.0000
vt 0.7321 0.0410 0.0000
vt 0.7321 0.0251 0.0000
vt 0.7891 0.0251 0.0000
vt 0.6727 0.0410 0.5625
vt 0.6727 0.0251 0.0000
vt 0.5564 0.0410 0.0000
vt 0.4995 0.0410 0.0000
vt 0.4996 0.0251 0.0000
vt 0.5564 0.0251 0.0000
vt 0.4402 0.0410 0.0000
vt 0.4402 0.0251 0.0000
vt 0.3241 0.0410 0.0000
vt 0.2673 0.0410 0.0000
vt 0.2673 0.0251 0.0000
vt 0.3241 0.0251 0.0000
vt 0.2080 0.0410 0.5625
vt 0.2080 0.0251 0.0000
vt 0.4765 0.1206 -2.2188
vt 0.4743 0.1229 -2.2188
vt 0.3948 0.0740 -2.2188
vt 0.3960 0.0710 -2.2188
vt 0.4687 0.1284 -2.2188
vt 0.3916 0.0813 -2.2188
vt 0.2988 0.0576 -2.2188
vt 0.2988 0.0544 -2.2188
vt 0.2988 0.0655 -2.2188
vt 0.4520 0.1451 -2.2188
vt 0.3823 0.1028 -2.2188
vt 0.2988 0.0885 -2.2188
vt 0.1456 0.1451 -2.2188
vt 0.2153 0.1028 -2.2188
vt 0.1289 0.1284 -2.2188
vt 0.2060 0.0813 -2.2188
vt 0.1233 0.1229 -2.2188
vt 0.1211 0.1206 -2.2188
vt 0.2016 0.0710 -2.2188
vt 0.2027 0.0740 -2.2188
vt 0.7891 0.0091 0.0000
vt 0.8461 0.0091 0.0000
vt 0.8461 0.0251 0.0000
vt 0.9055 0.0091 0.0000
vt 0.5235 0.8672 -0.2812
vt 0.5257 0.8650 -0.2812
vt 0.6052 0.9138 -0.2812
vt 0.6041 0.9168 -0.2812
vt 0.5313 0.8595 -0.2812
vt 0.6084 0.9065 -0.2812
vt 0.7012 0.9302 -0.2812
vt 0.7012 0.9334 -0.2812
vt 0.7012 0.9223 -0.2812
vt 0.5480 0.8427 -0.2812
vt 0.6177 0.8851 -0.2812
vt 0.7012 0.8994 -0.2812
vt 0.8544 0.8427 -0.2812
vt 0.7847 0.8851 -0.2812
vt 0.8711 0.8595 -0.2812
vt 0.7940 0.9065 -0.2812
vt 0.8767 0.8650 -0.2812
vt 0.8789 0.8672 -0.2812
vt 0.7984 0.9168 -0.2812
vt 0.7973 0.9138 -0.2812
vt 0.4765 0.4763 -2.2188
vt 0.4743 0.4740 -2.2188
vt 0.5228 0.3945 -2.2188
vt 0.5258 0.3956 -2.2188
vt 0.4687 0.4685 -2.2188
vt 0.5155 0.3913 -2.2188
vt 0.5383 0.2985 -2.2188
vt 0.5416 0.2985 2.2188
vt 0.5308 0.2985 -2.2188
vt 0.4520 0.4518 -2.2188
vt 0.4942 0.3820 -2.2188
vt 0.5084 0.2985 -2.2188
vt 0.4942 0.2149 -2.2188
vt 0.5155 0.2056 -2.2188
vt 0.5258 0.2013 -2.2188
vt 0.5228 0.2024 -2.2188
vt 0.5564 0.0091 0.0000
vt 0.6133 0.0091 0.0000
vt 0.6133 0.0251 0.0000
vt 0.6727 0.0091 0.0000
vt 0.9252 0.7854 -0.2812
vt 0.9282 0.7865 -0.2812
vt 0.9179 0.7822 -0.2812
vt 0.9407 0.6894 -0.2812
vt 0.9440 0.6894 0.2812
vt 0.9332 0.6894 -0.2812
vt 0.8966 0.7729 -0.2812
vt 0.9108 0.6894 -0.2812
vt 0.8544 0.5360 -0.2812
vt 0.8966 0.6058 -0.2812
vt 0.8711 0.5193 -0.2812
vt 0.9179 0.5965 -0.2812
vt 0.8767 0.5138 -0.2812
vt 0.8789 0.5115 -0.2812
vt 0.9282 0.5922 -0.2812
vt 0.9252 0.5933 -0.2812
vt 0.1211 0.4763 -2.2188
vt 0.1233 0.4740 -2.2188
vt 0.2027 0.5229 -2.2188
vt 0.2016 0.5259 -2.2188
vt 0.1289 0.4685 -2.2188
vt 0.2060 0.5156 -2.2188
vt 0.2988 0.5393 -2.2188
vt 0.2988 0.5425 -2.2188
vt 0.2988 0.5314 -2.2188
vt 0.1456 0.4518 -2.2188
vt 0.2153 0.4942 -2.2188
vt 0.2988 0.5085 -2.2188
vt 0.3823 0.4942 -2.2188
vt 0.3916 0.5156 -2.2188
vt 0.3959 0.5259 -2.2188
vt 0.3948 0.5229 -2.2188
vt 0.3241 0.0092 0.0000
vt 0.3809 0.0092 0.0000
vt 0.3809 0.0251 0.0000
vt 0.4402 0.0091 0.0000
vt 0.7973 0.4650 -0.2812
vt 0.7984 0.4619 -0.2812
vt 0.7940 0.4723 -0.2812
vt 0.7012 0.4486 -0.2812
vt 0.7012 0.4453 -0.2812
vt 0.7012 0.4565 -0.2812
vt 0.7847 0.4937 -0.2812
vt 0.7012 0.4794 -0.2812
vt 0.5480 0.5360 -0.2812
vt 0.6177 0.4937 -0.2812
vt 0.5313 0.5193 -0.2812
vt 0.6084 0.4723 -0.2812
vt 0.5257 0.5138 -0.2812
vt 0.5235 0.5115 -0.2812
vt 0.6041 0.4619 -0.2812
vt 0.6052 0.4650 -0.2812
vt 0.0748 0.2024 -2.2188
vt 0.0718 0.2013 -2.2188
vt 0.0821 0.2056 -2.2188
vt 0.0593 0.2985 -2.2188
vt 0.0560 0.2985 2.2188
vt 0.0668 0.2985 -2.2188
vt 0.1034 0.2149 -2.2188
vt 0.0892 0.2985 -2.2188
vt 0.1034 0.3820 -2.2188
vt 0.0821 0.3913 -2.2188
vt 0.0718 0.3956 -2.2188
vt 0.0748 0.3945 -2.2188
vt 0.0918 0.0092 0.0000
vt 0.1487 0.0092 0.0000
vt 0.1487 0.0251 0.0000
vt 0.2080 0.0092 0.0000
vt 0.4772 0.5933 -0.2812
vt 0.4742 0.5922 -0.2812
vt 0.4845 0.5965 -0.2812
vt 0.4617 0.6894 -0.2812
vt 0.4584 0.6894 0.2812
vt 0.4692 0.6894 -0.2812
vt 0.5058 0.6058 -0.2812
vt 0.4916 0.6894 -0.2812
vt 0.5058 0.7729 -0.2812
vt 0.4845 0.7822 -0.2812
vt 0.4742 0.7865 -0.2812
vt 0.4772 0.7854 -0.2812
vt 0.0350 0.0092 0.0000
vt 0.9650 0.0091 0.0000
vt 0.7321 0.0091 0.0000
vt 0.4995 0.0091 0.0000
vt 0.2673 0.0092 0.0000
vt 0.8461 0.0410 0.0000
vt 0.6133 0.0410 0.0000
vt 0.3809 0.0410 0.0000
vt 0.1487 0.0410 0.0000
# 229 texture coords

o Top_stool
g Top_stool
usemtl wire_115115115
s 1
f 1/1/1 2/2/2 3/3/3 4/4/4 
f 2/2/2 5/5/5 6/6/6 3/3/3 
f 4/4/4 3/3/3 7/7/7 8/8/8 
f 3/3/3 6/6/6 9/9/9 7/7/7 
f 10/10/10 11/11/11 12/12/12 13/13/13 
f 13/13/13 12/12/12 14/14/14 15/15/15 
f 5/5/5 10/10/10 13/13/13 6/6/6 
f 6/6/6 13/13/13 15/15/15 9/9/9 
f 16/16/16 17/17/17 18/18/18 19/19/19 
f 17/17/17 20/20/20 21/21/21 18/18/18 
f 19/19/19 18/18/18 15/15/15 14/14/14 
f 18/18/18 21/21/21 9/9/9 15/15/15 
f 22/22/22 23/23/23 24/24/24 25/25/25 
f 25/25/25 24/24/24 8/8/8 7/7/7 
f 20/20/20 22/22/22 25/25/25 21/21/21 
f 21/21/21 25/25/25 7/7/7 9/9/9 
f 26/26/26 27/27/27 28/28/28 29/29/29 
f 27/27/27 30/30/30 31/31/31 28/28/28 
f 29/29/29 28/28/28 32/32/32 33/33/33 
f 28/28/28 31/31/31 34/34/34 32/32/32 
f 35/35/35 36/36/36 37/37/37 38/38/38 
f 38/38/38 37/37/37 39/39/39 40/40/40 
f 30/30/30 35/35/35 38/38/38 31/31/31 
f 31/31/31 38/38/38 40/40/40 34/34/34 
f 41/41/41 42/42/42 43/43/43 44/44/44 
f 42/42/42 45/45/45 46/46/46 43/43/43 
f 44/44/44 43/43/43 40/40/40 39/39/39 
f 43/43/43 46/46/46 34/34/34 40/40/40 
f 47/47/47 48/48/48 49/49/49 50/50/50 
f 50/50/50 49/49/49 33/33/33 32/32/32 
f 45/45/45 47/47/47 50/50/50 46/46/46 
f 46/46/46 50/50/50 32/32/32 34/34/34 
f 51/51/51 52/52/52 53/53/52 54/54/51 
f 52/55/52 55/56/53 56/57/53 53/58/52 
f 57/59/54 58/60/55 59/61/55 60/62/54 
f 58/60/55 61/63/56 62/64/56 59/61/55 
f 63/65/57 64/66/58 65/67/58 66/68/57 
f 64/66/58 67/69/59 68/70/59 65/67/58 
f 69/71/60 70/72/61 71/73/61 72/74/60 
f 70/72/61 73/75/62 74/76/62 71/73/61 
f 75/77/54 76/78/63 77/79/64 78/80/65 
f 76/78/63 79/81/66 80/82/67 77/79/64 
f 78/80/65 77/79/64 81/83/68 82/84/53 
f 77/79/64 80/82/67 83/85/69 81/83/68 
f 84/86/70 36/36/36 35/35/35 85/87/71 
f 85/87/71 35/35/35 30/30/30 86/88/72 
f 79/81/66 84/86/70 85/87/71 80/82/67 
f 80/82/67 85/87/71 86/88/72 83/85/69 
f 26/26/26 87/89/73 88/90/74 27/27/27 
f 87/89/73 89/91/75 90/92/76 88/90/74 
f 27/27/27 88/90/74 86/88/72 30/30/30 
f 88/90/74 90/92/76 83/85/69 86/88/72 
f 91/93/77 92/94/51 93/95/52 94/96/78 
f 94/96/78 93/95/52 82/84/53 81/83/68 
f 89/91/75 91/93/77 94/96/78 90/92/76 
f 90/92/76 94/96/78 81/83/68 83/85/69 
f 75/97/54 78/98/65 95/99/65 60/62/54 
f 78/98/65 82/100/53 56/57/53 95/99/65 
f 51/101/51 96/102/79 97/103/80 52/104/52 
f 96/102/79 98/105/81 99/106/82 97/103/80 
f 52/104/52 97/103/80 100/107/83 55/108/53 
f 97/103/80 99/106/82 101/109/84 100/107/83 
f 102/110/85 1/1/1 4/4/4 103/111/86 
f 103/111/86 4/4/4 8/8/8 104/112/87 
f 98/105/81 102/110/85 103/111/86 99/106/82 
f 99/106/82 103/111/86 104/112/87 101/109/84 
f 23/23/23 105/113/88 106/114/89 24/24/24 
f 105/113/88 107/115/90 108/116/91 106/114/89 
f 24/24/24 106/114/89 104/112/87 8/8/8 
f 106/114/89 108/116/91 101/109/84 104/112/87 
f 109/117/92 57/118/54 110/119/65 111/120/93 
f 111/120/93 110/119/65 55/108/53 100/107/83 
f 107/115/90 109/117/92 111/120/93 108/116/91 
f 108/116/91 111/120/93 100/107/83 101/109/84 
f 112/121/57 113/122/94 114/123/95 115/124/96 
f 113/122/94 116/125/97 117/126/98 114/123/95 
f 115/124/96 114/123/95 118/127/99 119/128/56 
f 114/123/95 117/126/98 120/129/100 118/127/99 
f 121/130/101 41/41/41 44/44/44 122/131/102 
f 122/131/102 44/44/44 39/39/39 123/132/103 
f 116/125/97 121/130/101 122/131/102 117/126/98 
f 117/126/98 122/131/102 123/132/103 120/129/100 
f 36/36/36 84/86/70 124/133/104 37/37/37 
f 84/86/70 79/81/66 125/134/105 124/133/104 
f 37/37/37 124/133/104 123/132/103 39/39/39 
f 124/133/104 125/134/105 120/129/100 123/132/103 
f 76/78/63 75/77/54 126/135/55 127/136/106 
f 127/136/106 126/135/55 119/128/56 118/127/99 
f 79/81/66 76/78/63 127/136/106 125/134/105 
f 125/134/105 127/136/106 118/127/99 120/129/100 
f 112/137/57 115/138/96 128/139/96 66/68/57 
f 115/138/96 119/140/56 62/64/56 128/139/96 
f 57/118/54 109/117/92 129/141/107 58/142/55 
f 109/117/92 107/115/90 130/143/108 129/141/107 
f 58/142/55 129/141/107 131/144/109 61/145/56 
f 129/141/107 130/143/108 132/146/110 131/144/109 
f 105/113/88 23/23/23 22/22/22 133/147/111 
f 133/147/111 22/22/22 20/20/20 134/148/112 
f 107/115/90 105/113/88 133/147/111 130/143/108 
f 130/143/108 133/147/111 134/148/112 132/146/110 
f 16/16/16 135/149/113 136/150/114 17/17/17 
f 135/149/113 137/151/115 138/152/116 136/150/114 
f 17/17/17 136/150/114 134/148/112 20/20/20 
f 136/150/114 138/152/116 132/146/110 134/148/112 
f 139/153/117 63/154/57 140/155/96 141/156/118 
f 141/156/118 140/155/96 61/145/56 131/144/109 
f 137/151/115 139/153/117 141/156/118 138/152/116 
f 138/152/116 141/156/118 131/144/109 132/146/110 
f 142/157/60 143/158/119 144/159/120 145/160/121 
f 143/158/119 146/161/122 147/162/123 144/159/120 
f 145/160/121 144/159/120 148/163/124 149/164/59 
f 144/159/120 147/162/123 150/165/125 148/163/124 
f 151/166/126 48/48/48 47/47/47 152/167/127 
f 152/167/127 47/47/47 45/45/45 153/168/128 
f 146/161/122 151/166/126 152/167/127 147/162/123 
f 147/162/123 152/167/127 153/168/128 150/165/125 
f 41/41/41 121/130/101 154/169/129 42/42/42 
f 121/130/101 116/125/97 155/170/130 154/169/129 
f 42/42/42 154/169/129 153/168/128 45/45/45 
f 154/169/129 155/170/130 150/165/125 153/168/128 
f 113/122/94 112/121/57 156/171/58 157/172/131 
f 157/172/131 156/171/58 149/164/59 148/163/124 
f 116/125/97 113/122/94 157/172/131 155/170/130 
f 155/170/130 157/172/131 148/163/124 150/165/125 
f 142/173/60 145/174/121 158/175/121 72/74/60 
f 145/174/121 149/176/59 68/70/59 158/175/121 
f 63/154/57 139/153/117 159/177/132 64/178/58 
f 139/153/117 137/151/115 160/179/133 159/177/132 
f 64/178/58 159/177/132 161/180/134 67/181/59 
f 159/177/132 160/179/133 162/182/135 161/180/134 
f 135/149/113 16/16/16 19/19/19 163/183/136 
f 163/183/136 19/19/19 14/14/14 164/184/137 
f 137/151/115 135/149/113 163/183/136 160/179/133 
f 160/179/133 163/183/136 164/184/137 162/182/135 
f 11/11/11 165/185/138 166/186/139 12/12/12 
f 165/185/138 167/187/140 168/188/141 166/186/139 
f 12/12/12 166/186/139 164/184/137 14/14/14 
f 166/186/139 168/188/141 162/182/135 164/184/137 
f 169/189/142 69/190/60 170/191/121 171/192/143 
f 171/192/143 170/191/121 67/181/59 161/180/134 
f 167/187/140 169/189/142 171/192/143 168/188/141 
f 168/188/141 171/192/143 161/180/134 162/182/135 
f 92/94/51 91/93/77 172/193/144 173/194/145 
f 91/93/77 89/91/75 174/195/146 172/193/144 
f 173/194/145 172/193/144 175/196/147 176/197/62 
f 172/193/144 174/195/146 177/198/148 175/196/147 
f 87/89/73 26/26/26 29/29/29 178/199/149 
f 178/199/149 29/29/29 33/33/33 179/200/150 
f 89/91/75 87/89/73 178/199/149 174/195/146 
f 174/195/146 178/199/149 179/200/150 177/198/148 
f 48/48/48 151/166/126 180/201/151 49/49/49 
f 151/166/126 146/161/122 181/202/152 180/201/151 
f 49/49/49 180/201/151 179/200/150 33/33/33 
f 180/201/151 181/202/152 177/198/148 179/200/150 
f 143/158/119 142/157/60 182/203/61 183/204/153 
f 183/204/153 182/203/61 176/197/62 175/196/147 
f 146/161/122 143/158/119 183/204/153 181/202/152 
f 181/202/152 183/204/153 175/196/147 177/198/148 
f 92/205/51 173/206/145 184/207/145 54/54/51 
f 173/206/145 176/208/62 74/76/62 184/207/145 
f 69/190/60 169/189/142 185/209/154 70/210/61 
f 169/189/142 167/187/140 186/211/155 185/209/154 
f 70/210/61 185/209/154 187/212/156 73/213/62 
f 185/209/154 186/211/155 188/214/157 187/212/156 
f 165/185/138 11/11/11 10/10/10 189/215/158 
f 189/215/158 10/10/10 5/5/5 190/216/159 
f 167/187/140 165/185/138 189/215/158 186/211/155 
f 186/211/155 189/215/158 190/216/159 188/214/157 
f 1/1/1 102/110/85 191/217/160 2/2/2 
f 102/110/85 98/105/81 192/218/161 191/217/160 
f 2/2/2 191/217/160 190/216/159 5/5/5 
f 191/217/160 192/218/161 188/214/157 190/216/159 
f 96/102/79 51/101/51 193/219/145 194/220/162 
f 194/220/162 193/219/145 73/213/62 187/212/156 
f 98/105/81 96/102/79 194/220/162 192/218/161 
f 192/218/161 194/220/162 187/212/156 188/214/157 
f 53/53/52 93/221/52 92/205/51 54/54/51 
f 56/57/53 82/100/53 93/222/52 53/58/52 
f 59/61/55 126/223/55 75/97/54 60/62/54 
f 62/64/56 119/140/56 126/223/55 59/61/55 
f 65/67/58 156/224/58 112/137/57 66/68/57 
f 68/70/59 149/176/59 156/224/58 65/67/58 
f 71/73/61 182/225/61 142/173/60 72/74/60 
f 74/76/62 176/208/62 182/225/61 71/73/61 
f 95/99/65 110/226/65 57/59/54 60/62/54 
f 56/57/53 55/56/53 110/226/65 95/99/65 
f 128/139/96 140/227/96 63/65/57 66/68/57 
f 62/64/56 61/63/56 140/227/96 128/139/96 
f 158/175/121 170/228/121 69/71/60 72/74/60 
f 68/70/59 67/69/59 170/228/121 158/175/121 
f 184/207/145 193/229/145 51/51/51 54/54/51 
f 74/76/62 73/75/62 193/229/145 184/207/145 
# 192 polygons