# Blender v2.82 (sub 7) OBJ File: ''
# www.blender.org
mtllib thing.mtl
o Cube
v 1.079261 1.193548 -2.560437
v 1.079261 2.874665 -1.063082
v 2.599406 1.193548 -1.063082
v 1.079261 -2.874665 -1.063082
v 1.079261 -1.193548 -2.560437
v 2.599406 -1.193548 -1.063082
v 2.599406 1.193548 1.063082
v 1.079261 2.874665 1.063082
v 1.079261 1.193548 2.560437
v 2.599406 -1.193548 1.063082
v 1.079261 -1.193548 2.560437
v 1.079261 -2.874665 1.063082
v -1.079261 1.193548 -2.560437
v -2.599406 1.193548 -1.063082
v -1.079261 2.874665 -1.063082
v -2.599406 -1.193548 -1.063082
v -1.079261 -1.193548 -2.560437
v -1.079261 -2.874665 -1.063082
v -2.599406 1.193548 1.063082
v -1.079261 1.193548 2.560437
v -1.079261 2.874665 1.063082
v -1.079261 -2.874665 1.063082
v -1.079261 -1.193548 2.560437
v -2.599406 -1.193548 1.063082
v 1.079261 -1.193548 -2.560437
v 2.599406 -1.193548 -1.063082
v 2.599406 1.193548 1.063082
v 1.079261 2.874665 1.063082
v -1.079261 2.874665 -1.063082
v -1.079261 1.193548 -2.560437
v 1.079261 1.193548 -2.560437
v 2.599406 -1.193548 1.063082
v -1.079261 2.874665 1.063082
v 2.599406 1.193548 -1.063082
v 1.079261 1.193548 -2.560437
v 1.079261 2.874665 -1.063082
v 2.599406 -1.193548 -1.063082
v 1.079261 -2.874665 -1.063082
v 1.079261 -1.193548 -2.560437
v -1.079261 2.874665 -1.063082
v -1.079261 1.193548 -2.560437
v -1.079261 -2.874665 -1.063082
v -2.599406 -1.193548 -1.063082
v -1.079261 2.874665 1.063082
v -2.599406 1.193548 1.063082
v -1.079261 -1.193548 -2.560437
v -2.599406 1.193548 -1.063082
v 1.079261 2.874665 1.063082
v 1.079261 1.193548 2.560437
v -1.079261 -2.874665 -1.063082
v -2.599406 -1.193548 -1.063082
v -1.079261 2.874665 1.063082
v -2.599406 1.193548 1.063082
v -1.079261 -2.874665 1.063082
v -1.079261 -1.193548 2.560437
v -2.599406 -1.193548 1.063082
v 1.079261 -1.193548 2.560437
vt 0.301899 0.573101
vt 0.198101 0.676899
vt 0.198101 0.573101
vt 0.551899 0.073101
vt 0.448101 0.176899
vt 0.448101 0.073101
vt 0.551899 0.823101
vt 0.448101 0.926899
vt 0.448101 0.823101
vt 0.801899 0.573101
vt 0.698101 0.676899
vt 0.698101 0.573101
vt 0.551899 0.573101
vt 0.448101 0.676899
vt 0.448101 0.573101
vt 0.551899 0.426899
vt 0.625000 0.426899
vt 0.551899 0.500000
vt 0.301899 0.573101
vt 0.301899 0.500000
vt 0.375000 0.573101
vt 0.551899 0.676899
vt 0.625000 0.676899
vt 0.551899 0.750000
vt 0.448101 0.676899
vt 0.448101 0.750000
vt 0.375000 0.676899
vt 0.551899 0.323101
vt 0.551899 0.250000
vt 0.625000 0.323101
vt 0.448101 0.176899
vt 0.448101 0.250000
vt 0.375000 0.176899
vt 0.551899 0.073101
vt 0.551899 0.000000
vt 0.625000 0.073101
vt 0.198101 0.676899
vt 0.198101 0.750000
vt 0.125000 0.676899
vt 0.125000 0.573101
vt 0.198101 0.573101
vt 0.198101 0.573101
vt 0.551899 0.426899
vt 0.551899 0.926899
vt 0.448101 1.000000
vt 0.448101 0.823101
vt 0.551899 0.823101
vt 0.448101 0.323101
vt 0.551899 0.176899
vt 0.801899 0.676899
vt 0.698101 0.750000
vt 0.698101 0.676899
vt 0.301899 0.676899
vt 0.198101 0.750000
vt 0.801899 0.573101
vt 0.875000 0.676899
vt 0.801899 0.676899
vt 0.801899 0.500000
vt 0.551899 0.323101
vt 0.448101 0.426899
vt 0.448101 0.323101
vt 0.448101 0.426899
vt 0.448101 0.573101
vt 0.551899 0.676899
vt 0.698101 0.676899
vt 0.801899 0.500000
vt 0.801899 0.573101
vt 0.551899 0.426899
vt 0.551899 0.426899
vt 0.801899 0.676899
vt 0.801899 0.676899
vt 0.698101 0.500000
vt 0.551899 0.500000
vt 0.625000 0.426899
vt 0.375000 0.573101
vt 0.301899 0.500000
vt 0.625000 0.323101
vt 0.375000 0.176899
vt 0.875000 0.676899
vt 0.198101 0.500000
vt 0.551899 0.176899
vt 0.551899 0.176899
vt 0.875000 0.573101
vt 0.698101 0.750000
vt 0.125000 0.573101
vt 0.625000 0.073101
vt 0.125000 0.676899
vt 0.551899 1.000000
vt 0.448101 1.000000
vt 0.448101 0.926899
vt 0.198101 0.500000
vt 0.551899 1.000000
vt 0.801899 0.750000
vt 0.301899 0.750000
vt 0.875000 0.573101
vt 0.698101 0.500000
vt 0.551899 0.426899
vt 0.551899 0.176899
vn 0.0000 -1.0000 0.0000
vn -1.0000 0.0000 0.0000
vn 0.0000 0.0000 1.0000
vn 0.0000 1.0000 0.0000
vn 1.0000 0.0000 0.0000
vn 0.5925 0.5358 -0.6015
vn 0.5925 -0.5358 -0.6015
vn 0.5925 0.5358 0.6015
vn 0.5925 -0.5358 0.6015
vn -0.5925 0.5358 -0.6015
vn -0.5925 -0.5358 -0.6015
vn -0.5925 0.5358 0.6015
vn -0.5925 -0.5358 0.6015
vn -0.7417 -0.6707 0.0000
vn 0.0000 -0.6651 -0.7467
vn 0.7017 0.0000 -0.7124
vn -0.7017 0.0000 0.7124
vn 0.7017 0.0000 0.7124
vn -0.7017 0.0000 -0.7124
vn 0.0000 0.6651 0.7467
vn 0.7417 0.6707 0.0000
vn 0.0000 -0.6651 0.7467
vn -0.7417 0.6707 0.0000
vn 0.0000 0.6651 -0.7467
vn 0.7417 -0.6707 0.0000
vn 0.0000 0.0000 -1.0000
usemtl Material
s off
f 38/1/1 22/2/1 50/3/1
f 53/4/2 51/5/2 24/6/2
f 9/7/3 23/8/3 11/9/3
f 15/10/4 8/11/4 36/12/4
f 34/13/5 10/14/5 6/15/5
f 31/16/6 2/17/6 3/18/6
f 4/19/7 39/20/7 26/21/7
f 27/22/8 48/23/8 49/24/8
f 32/25/9 57/26/9 12/27/9
f 30/28/10 47/29/10 29/30/10
f 16/31/11 46/32/11 18/33/11
f 45/34/12 20/35/12 44/36/12
f 54/37/13 23/38/13 56/39/13
f 54/37/14 43/40/14 42/41/14
f 18/42/15 39/20/15 4/19/15
f 6/15/16 35/43/16 34/13/16
f 20/44/17 56/45/17 23/8/17
f 57/46/18 27/22/18 49/47/18
f 46/48/19 47/49/19 30/28/19
f 44/50/20 9/51/20 28/52/20
f 8/11/21 34/13/21 36/12/21
f 12/53/22 55/54/22 22/2/22
f 29/55/23 19/56/23 33/57/23
f 36/12/24 13/58/24 15/10/24
f 38/1/25 32/25/25 12/53/25
f 41/59/26 25/60/26 17/61/26
f 5/62/3 37/63/3 25/60/3
f 7/64/3 48/65/3 27/22/3
f 15/10/3 41/66/3 40/67/3
f 35/43/3 25/68/3 1/69/3
f 10/14/3 27/22/3 32/25/3
f 8/11/3 52/70/3 48/65/3
f 21/71/3 40/67/3 52/70/3
f 13/58/3 1/72/3 41/66/3
f 6/15/3 32/25/3 37/63/3
f 31/16/3 34/73/3 35/43/3
f 2/17/3 35/43/3 36/74/3
f 3/18/3 36/74/3 34/73/3
f 4/19/3 37/75/3 38/1/3
f 26/21/3 25/76/3 37/75/3
f 30/28/3 40/77/3 41/59/3
f 16/31/3 50/78/3 51/5/3
f 33/57/3 53/79/3 52/70/3
f 18/42/3 38/1/3 50/3/3
f 39/20/3 17/80/3 25/76/3
f 46/48/3 41/59/3 17/61/3
f 47/49/3 51/81/3 14/82/3
f 29/55/3 52/70/3 40/67/3
f 19/56/3 14/83/3 53/79/3
f 28/52/3 49/84/3 48/65/3
f 42/41/3 51/85/3 50/3/3
f 45/34/3 52/86/3 53/4/3
f 23/38/3 22/2/3 55/54/3
f 54/37/3 50/3/3 22/2/3
f 43/40/3 24/87/3 51/85/3
f 56/45/3 53/88/3 24/89/3
f 9/7/3 57/46/3 49/47/3
f 44/50/3 48/65/3 52/70/3
f 11/9/3 55/90/3 57/46/3
f 38/1/1 12/53/1 22/2/1
f 53/4/2 14/82/2 51/5/2
f 9/7/3 20/44/3 23/8/3
f 15/10/4 21/71/4 8/11/4
f 34/13/5 7/64/5 10/14/5
f 54/37/14 56/39/14 43/40/14
f 18/42/15 46/91/15 39/20/15
f 6/15/16 5/62/16 35/43/16
f 20/44/17 45/92/17 56/45/17
f 57/46/18 32/25/18 27/22/18
f 46/48/19 16/31/19 47/49/19
f 44/50/20 20/93/20 9/51/20
f 8/11/21 7/64/21 34/13/21
f 12/53/22 57/94/22 55/54/22
f 29/55/23 47/95/23 19/56/23
f 36/12/24 35/96/24 13/58/24
f 38/1/25 37/63/25 32/25/25
f 41/59/26 1/69/26 25/60/26
f 5/62/3 6/15/3 37/63/3
f 7/64/3 8/11/3 48/65/3
f 15/10/3 13/58/3 41/66/3
f 35/43/3 5/97/3 25/68/3
f 10/14/3 7/64/3 27/22/3
f 8/11/3 21/71/3 52/70/3
f 21/71/3 15/10/3 40/67/3
f 13/58/3 35/96/3 1/72/3
f 6/15/3 10/14/3 32/25/3
f 31/16/3 3/18/3 34/73/3
f 2/17/3 31/16/3 35/43/3
f 3/18/3 2/17/3 36/74/3
f 4/19/3 26/21/3 37/75/3
f 26/21/3 39/20/3 25/76/3
f 30/28/3 29/30/3 40/77/3
f 16/31/3 18/33/3 50/78/3
f 33/57/3 19/56/3 53/79/3
f 18/42/3 4/19/3 38/1/3
f 39/20/3 46/91/3 17/80/3
f 46/48/3 30/28/3 41/59/3
f 47/49/3 16/98/3 51/81/3
f 29/55/3 33/57/3 52/70/3
f 19/56/3 47/95/3 14/83/3
f 28/52/3 9/51/3 49/84/3
f 42/41/3 43/40/3 51/85/3
f 45/34/3 44/36/3 52/86/3
f 23/38/3 54/37/3 22/2/3
f 54/37/3 42/41/3 50/3/3
f 43/40/3 56/39/3 24/87/3
f 56/45/3 45/92/3 53/88/3
f 9/7/3 11/9/3 57/46/3
f 44/50/3 28/52/3 48/65/3
f 11/9/3 23/8/3 55/90/3
